<?xml version="1.0" encoding="UTF-8"?>
<svg xmlns="http://www.w3.org/2000/svg" version="1.1" viewBox="0 0 1335.34 627.97">
  <defs>
    <style>
      .cls-1 {
        fill: none;
      }

      .cls-2 {
        fill: #231815;
      }

      .cls-3 {
        fill: #00489d;
      }
    </style>
  </defs>
  <!-- Generator: Adobe Illustrator 28.7.10, SVG Export Plug-In . SVG Version: 1.2.0 Build 236)  -->
  <g>
    <g id="_圖層_1" data-name="圖層_1">
      <g>
        <path class="cls-1" d="M342.91,298.8c.7-.74,1.21-1.3,1.75-1.83,15.91-15.5,19.18-38.5,6.62-56.81-9.21-13.42-22.48-19.68-38.48-20.19-11.6-.37-23.22-.12-34.84-.05-3.39.02-6.08,1.59-7.72,4.62-3.37,6.18.87,13.31,8.01,13.35,10.61.06,21.23-.07,31.84,0,9.36.07,17.64,3.05,23.74,10.35,13.15,15.74,5.26,38.59-15.12,43.97-5.05,1.34-7.69,5.16-7.23,10.05.42,4.54,4,7.51,9.1,8.18,3.55.47,7.18,1.15,10.47,2.48,9.28,3.74,15.66,13.15,16.34,23.42.64,9.67-3.58,17.05-11.67,22.23-4.86,3.11-10.33,4.28-16.05,4.29-13.69.04-27.38,0-41.07.04-5.68.01-9.47,3.69-9.44,9.06.03,5.17,3.91,8.92,9.38,8.93,14.61.02,29.23.1,43.84-.02,9.19-.08,17.76-2.53,25.44-7.71,20.59-13.89,24.33-45.1,8.64-63.93-3.69-4.43-8.24-7.78-13.56-10.44Z"/>
        <path class="cls-3" d="M294.16,167.04h0c-72.89,0-131.97,59.09-131.97,131.97h0c0,52.81,31.03,98.35,75.84,119.45,0-21.34.06-42.68.04-64.02-.04-41.98-.12-83.95-.16-125.93,0-8.17,6.19-13.18,14.26-11.62,5.34,1.03,8.78,5.11,8.78,10.56,0,6.86,0,13.72,0,20.58h34.44c3.93,0,7.12,3.19,7.12,7.12v.83c0,3.93-3.19,7.12-7.12,7.12h-34.44c0,2.53,0,5.06,0,7.58h34.44c3.93,0,7.12,3.19,7.12,7.12v.83c0,3.93-3.19,7.12-7.12,7.12h-34.44c0,2.53,0,5.06,0,7.59h34.44c3.93,0,7.12,3.19,7.12,7.12v.83c0,3.93-3.19,7.12-7.12,7.12h-34.44c0,2.53,0,5.06,0,7.59h34.44c3.93,0,7.12,3.19,7.12,7.12v.83c0,3.93-3.19,7.12-7.12,7.12h-34.42c0,2.53,0,5.06,0,7.59h34.43c3.93,0,7.12,3.19,7.12,7.12v.83c0,3.93-3.19,7.12-7.12,7.12h-34.44c-.02,22.87.09,73.04.09,73.04,10.59,2.74,21.68,4.22,33.12,4.22h0c72.89,0,131.97-59.09,131.97-131.97h0c0-72.89-59.09-131.97-131.97-131.97ZM347.82,373.16c-7.68,5.18-16.25,7.63-25.44,7.71-14.61.12-29.23.05-43.84.02-5.47,0-9.36-3.75-9.38-8.93-.03-5.37,3.76-9.05,9.44-9.06,13.69-.03,27.38,0,41.07-.04,5.71-.02,11.19-1.18,16.05-4.29,8.09-5.17,12.3-12.56,11.67-22.23-.68-10.27-7.06-19.68-16.34-23.42-3.29-1.33-6.93-2.01-10.47-2.48-5.11-.68-8.68-3.64-9.1-8.18-.46-4.89,2.18-8.72,7.23-10.05,20.38-5.39,28.27-28.24,15.12-43.97-6.1-7.3-14.38-10.28-23.74-10.35-10.61-.08-21.23.05-31.84,0-7.14-.04-11.37-7.16-8.01-13.35,1.65-3.03,4.33-4.59,7.72-4.62,11.61-.07,23.24-.32,34.84.05,15.99.51,29.27,6.77,38.48,20.19,12.56,18.3,9.29,41.31-6.62,56.81-.54.53-1.05,1.1-1.75,1.83,5.31,2.66,9.87,6.01,13.56,10.44,15.69,18.83,11.95,50.04-8.64,63.93Z"/>
      </g>
      <g>
        <path class="cls-2" d="M545.59,295.07c5.86,2.42,10.38,6.56,14.03,11.74,4.15,5.89,6.18,12.5,6.57,19.61,1.32,23.77-17.32,39.78-37.01,41.16-7.24.51-14.54.24-21.81.27-7.62.03-15.25,0-22.87,0-4.7,0-6.43-1.72-6.42-6.38,0-31.44.17-62.88-.03-94.32-.12-18.15,12.42-32.66,28.9-36.74,13.46-3.33,26.26-1.75,37.6,6.62,16.66,12.3,20.33,37.18,6.52,52.93-1.61,1.84-3.59,3.37-5.48,5.12ZM491.88,303.11c-.11.56-.19.76-.19.96-.02,16.2-.01,32.4-.06,48.59,0,1.67,1.01,1.72,2.17,1.72,4.57.01,9.14.05,13.72.02,7.2-.06,14.43.23,21.59-.35,13.11-1.05,23.3-12.53,23.33-25.63.03-12.78-10.01-24.03-23.12-25.02-8.61-.65-17.3-.24-25.96-.29-3.8-.02-7.6,0-11.48,0ZM491.8,289.66c3.9,0,7.7,0,11.49,0,7.2-.01,14.45.45,21.6-.16,9.29-.8,16.17-5.74,19.38-14.68,3.22-8.95,1.53-17.32-5.01-24.24-7.6-8.05-17.21-9.67-27.69-7.37-10.6,2.33-19.2,10.66-19.7,22.46-.33,7.87-.06,15.76-.06,23.98Z"/>
        <path class="cls-2" d="M1076.62,334.3c0,3.52,0,6.76,0,10,0,6.51,0,13.03,0,19.54,0,3.13-.94,4.04-4.11,4.04-2.43,0-4.85.03-7.28-.02-2.02-.04-3.14-1.09-3.14-3.07,0-26.19-.2-52.38.15-78.56.18-13.83,7.05-24.62,17.99-32.64,21.41-15.67,53.12-9.69,67.22,12.78,13.91,22.18,5.65,56.16-24.37,65.53-5.54,1.73-11.21,2.43-17,2.41-9.7-.03-19.41,0-29.45,0ZM1076.61,321.02c1.04,0,1.79,0,2.54,0,9.77,0,19.54,0,29.3.02,20.05.02,34.97-18.91,30.46-38.45-4.23-18.32-22.75-26.03-36.42-23.64-16.9,2.95-26.51,17.07-25.95,31.02.32,7.88.06,15.78.06,23.67,0,2.35,0,4.69,0,7.38Z"/>
        <path class="cls-2" d="M1047.15,290.89c0,11.08.02,22.17,0,33.25-.03,18.87-9.91,34.05-27.53,40.86-15.43,5.96-31.08,5.9-45.92-1.97-14.88-7.89-22.77-20.68-22.98-37.55-.3-23.48-.07-46.97-.06-70.46,0-.76-.04-1.53.05-2.28.28-2.24,1.81-3.64,4.03-3.67,2.22-.03,4.44-.03,6.65.07,2.5.11,3.91,1.71,3.9,4.19-.05,22.65-.1,45.3-.15,67.95,0,1.73-.08,3.47.05,5.19,1.05,13.55,8.54,22.43,20.98,26.72,13.55,4.67,26.3,2.51,37.19-7.27,6.11-5.48,8.81-12.62,8.81-20.78,0-23.42-.03-46.83-.05-70.25,0-4.36,1.46-5.81,5.85-5.8,1.46,0,2.91,0,4.37.01,3.4.03,4.79,1.37,4.8,4.78.03,9.49.02,18.98.02,28.47,0,2.84,0,5.68,0,8.52h-.01Z"/>
        <path class="cls-2" d="M839.26,288.69c3.23-2.04,6.13-4.37,9.42-5.85,15.74-7.09,30.8-5.35,44.41,5.05,7.71,5.89,10.98,14.68,11.71,24.18.41,5.42-.05,10.9-.06,16.35,0,8.73.03,17.46.11,26.19.02,2.62.34,5.23.37,7.84.03,2.82-1.08,3.87-3.91,3.91-2.56.04-5.13.05-7.7.04-2.8-.01-3.94-1.06-4-3.86-.08-3.52-.03-7.05-.02-10.57.03-11.02.08-22.03.08-33.05,0-6.49-1.62-12.47-6-17.47-6.32-7.24-14.43-9.09-23.55-7.59-15.19,2.5-20.74,13.63-20.91,25.18-.21,14.06-.08,28.13-.09,42.19,0,4.69-.46,5.15-5.06,5.16-2.01,0-4.02.02-6.03.03-3.31.01-4.29-.96-4.27-4.36.03-5.47.14-10.94.14-16.41.02-31.8.02-63.6.03-95.4,0-3.48.94-4.4,4.45-4.41,2.36,0,4.71-.02,7.07,0,2.62.02,3.62.99,3.69,3.64.05,1.87.02,3.74.02,5.61,0,10.53-.01,21.06-.01,31.59,0,.66.07,1.32.11,2Z"/>
        <path class="cls-2" d="M727.93,307.62c0,7.2.12,14.41-.03,21.61-.24,11.89-4.45,22-13.86,29.62-16.25,13.16-42.66,11.99-57.45-2.7-6.82-6.77-10.48-15.23-10.69-24.8-.34-15.5-.22-31.02-.26-46.53,0-2.32.97-3.23,3.34-3.28,2.77-.05,5.54-.04,8.32-.03,2.96.02,3.7.73,3.7,3.69.02,13.71-.02,27.43.05,41.14.04,7.67,1.94,14.78,7.86,20.1,8.36,7.51,18.07,8.7,28.28,4.7,9.51-3.73,14.59-11.27,14.95-21.31.53-14.73.38-29.48.51-44.22.03-3.26.74-4,4.04-4.02,2.36-.01,4.71-.02,7.07-.02,3.25,0,4.16.91,4.16,4.23.01,7.27,0,14.54,0,21.82h0Z"/>
        <path class="cls-2" d="M776.22,368.94c-13.22.04-23.77-3.84-32.92-11.59-.31-.26-.66-.5-1.02-.67-2.56-1.14-2.66-1.69-.64-3.52,2.52-2.28,5.07-4.52,7.49-6.91,1.19-1.17,1.99-1.31,3.25-.08,4.65,4.56,10.04,7.83,16.58,8.89,6.2,1.01,12.3.89,17.99-2.24,1.14-.63,2.24-1.4,3.2-2.28,5.73-5.26,4.86-12.86-2.16-16.18-4.42-2.09-9.21-3.38-13.85-5-6.33-2.21-12.89-3.93-18.97-6.71-8.37-3.83-12.16-11.13-11.55-20.11.72-10.57,6.5-18.04,16.45-21.7,16.49-6.06,31.6-3.15,45.25,7.8,1.22.98.9,1.82-.07,2.73-2.39,2.22-4.8,4.4-7.11,6.7-1.22,1.22-2.19,1.05-3.38.03-3.92-3.32-8.3-5.78-13.41-6.69-6.14-1.09-12.03-.41-17.4,2.96-4.15,2.62-5.92,6.88-4.57,10.79,1.02,2.94,3.23,4.88,6.03,5.94,4.2,1.6,8.5,2.96,12.77,4.38,5.52,1.83,11.17,3.34,16.57,5.47,8.53,3.36,13.54,9.69,14.26,18.99.81,10.37-3.21,18.4-12.24,23.67-6.69,3.91-14.05,5.4-20.54,5.32Z"/>
        <path class="cls-2" d="M582.08,342.25c0-6.78-.05-13.57.02-20.35.07-7.39,1.05-14.6,4.65-21.24,6.83-12.6,17.68-19.12,31.65-20.68,4.16-.46,8.41-.12,12.62-.11,2.1,0,2.98,1.27,2.96,3.21-.03,2.9-.06,5.81-.27,8.7-.13,1.79-1.3,2.28-3.08,2.12-5.07-.46-10.11-.21-15.02,1.25-10.58,3.17-16.27,10.48-17.7,21.26-.32,2.39-.44,4.83-.45,7.24-.04,13.36-.02,26.72-.02,40.08,0,3.31-.58,3.89-3.84,3.9-2.63,0-5.27.01-7.9,0-2.77-.02-3.61-.84-3.62-3.57-.01-7.27,0-14.54,0-21.81Z"/>
      </g>
    </g>
  </g>
</svg>